<svg width="1828" height="860" viewBox="0 0 1828 860" fill="none" xmlns="http://www.w3.org/2000/svg">
<circle cx="1061" cy="337" r="46.5" stroke="#030B1C"/>
<circle cx="1061" cy="337" r="10" fill="#FEAE0D"/>
<circle cx="1061" cy="547" r="46.5" stroke="#030B1C"/>
<circle cx="1061" cy="547" r="10" fill="#FEAE0D"/>
<circle cx="1232" cy="408" r="46.5" stroke="#030B1C"/>
<circle cx="1232" cy="408" r="10" fill="#FEAE0D"/>
<circle cx="1326" cy="244" r="46.5" stroke="#030B1C"/>
<circle cx="1326" cy="244" r="10" fill="#FEAE0D"/>
<circle cx="1440" cy="671" r="46.5" stroke="#030B1C"/>
<circle cx="1440" cy="671" r="10" fill="#FEAE0D"/>
<circle cx="1534" cy="337" r="46.5" stroke="#030B1C"/>
<circle cx="1534" cy="337" r="10" fill="#FEAE0D"/>
<path d="M970.838 347.545C971.139 347.082 971.008 346.462 970.545 346.162L962.999 341.257C962.535 340.956 961.916 341.088 961.615 341.551C961.314 342.014 961.446 342.633 961.909 342.934L968.617 347.294L964.257 354.001C963.956 354.465 964.088 355.084 964.551 355.385C965.014 355.686 965.633 355.554 965.934 355.091L970.838 347.545ZM626.208 420.978L970.208 347.978L969.792 346.022L625.792 419.022L626.208 420.978Z" fill="#C9D1D9"/>
<path d="M1144.75 420.501C1145.11 420.083 1145.06 419.451 1144.64 419.091L1137.81 413.225C1137.4 412.865 1136.76 412.913 1136.4 413.332C1136.04 413.751 1136.09 414.382 1136.51 414.742L1142.58 419.956L1137.36 426.023C1137 426.442 1137.05 427.074 1137.47 427.434C1137.89 427.794 1138.52 427.746 1138.88 427.327L1144.75 420.501ZM626.075 459.997L1144.06 420.847L1143.91 418.853L625.925 458.003L626.075 459.997Z" fill="#C9D1D9"/>
<path d="M985.618 537.703C986.054 537.364 986.132 536.736 985.793 536.3L980.268 529.195C979.929 528.759 979.301 528.68 978.865 529.019C978.429 529.358 978.351 529.987 978.69 530.423L983.6 536.738L977.285 541.649C976.849 541.988 976.771 542.616 977.11 543.052C977.449 543.488 978.077 543.567 978.513 543.228L985.618 537.703ZM625.876 492.992L984.88 537.906L985.128 535.921L626.124 491.008L625.876 492.992Z" fill="#C9D1D9"/>
<path d="M1470.88 337.48C1471.14 336.996 1470.96 336.388 1470.48 336.123L1462.58 331.803C1462.1 331.538 1461.49 331.715 1461.23 332.2C1460.96 332.684 1461.14 333.292 1461.62 333.557L1468.64 337.397L1464.8 344.415C1464.54 344.9 1464.72 345.508 1465.2 345.773C1465.68 346.038 1466.29 345.86 1466.56 345.375L1470.88 337.48ZM1306.28 385.96L1470.28 337.96L1469.72 336.04L1305.72 384.04L1306.28 385.96Z" fill="#C9D1D9"/>
<path d="M1291.97 301.26C1291.84 300.724 1291.3 300.396 1290.76 300.529L1282.02 302.686C1281.49 302.818 1281.16 303.36 1281.29 303.897C1281.42 304.433 1281.97 304.76 1282.5 304.628L1290.27 302.71L1292.19 310.477C1292.32 311.013 1292.86 311.34 1293.4 311.208C1293.93 311.076 1294.26 310.534 1294.13 309.997L1291.97 301.26ZM1261.36 352.516L1291.86 302.016L1290.14 300.983L1259.64 351.482L1261.36 352.516Z" fill="#C9D1D9"/>
<circle cx="414" cy="476" r="10" fill="#2F2BFF"/>
<circle cx="414" cy="476" r="113.5" stroke="#898989"/>
<circle cx="414" cy="476" r="53.5" stroke="#898989"/>
<circle cx="414" cy="476" r="173.5" stroke="#898989"/>
</svg>
